<svg width="32" height="32" viewBox="0 0 32 32" fill="none" xmlns="http://www.w3.org/2000/svg">
<g id="Icon">
<g id="Group">
<path id="Vector" d="M29.3325 14.6664V15.9998C29.319 18.6909 28.4915 21.3149 26.9588 23.5269C25.4261 25.7389 23.2599 27.4353 20.745 28.3932C18.2301 29.351 15.4842 29.5254 12.8683 28.8935C10.2525 28.2615 7.88904 26.8528 6.08877 24.8525C4.2885 22.8522 3.13566 20.3539 2.7818 17.6862C2.42794 15.0184 2.88962 12.306 4.10616 9.90555C5.3227 7.50509 7.23714 5.52894 9.59782 4.23689C11.9585 2.94483 14.6549 2.39736 17.3325 2.66644" stroke="#F6683F" stroke-width="3" stroke-linecap="round" stroke-linejoin="round"/>
<path id="Vector_2" d="M25.3325 2.66644V10.6664M10.6659 18.6664C10.6659 18.6664 12.6659 21.3331 15.9992 21.3331C19.3325 21.3331 21.3325 18.6664 21.3325 18.6664H10.6659ZM11.9992 11.9998H12.0125H11.9992ZM19.9992 11.9998H20.0125H19.9992ZM21.3325 6.66644H29.3325H21.3325Z" stroke="#F6683F" stroke-width="3" stroke-linecap="round" stroke-linejoin="round"/>
</g>
</g>
</svg>
