<svg width="33" height="32" viewBox="0 0 33 32" fill="none" xmlns="http://www.w3.org/2000/svg">
<g id="Icon">
<mask id="mask0_0_1356" style="mask-type:alpha" maskUnits="userSpaceOnUse" x="0" y="0" width="33" height="32">
<rect id="Rectangle 157" x="0.5" width="32" height="32" fill="#D9D9D9"/>
</mask>
<g mask="url(#mask0_0_1356)">
<g id="Group 126">
<path id="Vector" d="M11.3773 21.8189C11.3773 21.8189 10.3047 21.8189 10.3047 20.7463C10.3047 19.6737 11.3773 16.4559 16.7404 16.4559C22.1034 16.4559 23.176 19.6737 23.176 20.7463C23.176 21.8189 22.1034 21.8189 22.1034 21.8189H11.3773ZM19.9582 12.1654C19.9582 13.0188 19.6192 13.8373 19.0157 14.4408C18.4123 15.0442 17.5938 15.3832 16.7404 15.3832C15.8869 15.3832 15.0685 15.0442 14.465 14.4408C13.8615 13.8373 13.5225 13.0188 13.5225 12.1654C13.5225 11.312 13.8615 10.4935 14.465 9.89005C15.0685 9.28659 15.8869 8.94757 16.7404 8.94757C17.5938 8.94757 18.4123 9.28659 19.0157 9.89005C19.6192 10.4935 19.9582 11.312 19.9582 12.1654Z" fill="#F6683F"/>
<g id="Group 125">
<path id="Vector_2" d="M23.8685 14.436H31.9842C32.0822 14.436 32.1782 14.464 32.261 14.5166C32.3437 14.5692 32.4097 14.6443 32.4513 14.7331C32.4929 14.8219 32.5083 14.9207 32.4958 15.018C32.4832 15.1152 32.4432 15.2069 32.3805 15.2822L28.3226 20.1533C28.2742 20.2114 28.2136 20.2581 28.1451 20.2901C28.0766 20.3222 28.0019 20.3388 27.9263 20.3388C27.8507 20.3388 27.776 20.3222 27.7075 20.2901C27.6391 20.2581 27.5785 20.2114 27.53 20.1533L23.4722 15.2822C23.4094 15.2069 23.3694 15.1152 23.3569 15.018C23.3444 14.9207 23.3598 14.8219 23.4014 14.7331C23.4429 14.6443 23.509 14.5692 23.5917 14.5166C23.6744 14.464 23.7704 14.436 23.8685 14.436ZM1.16425 18.564H9.27998C9.37802 18.564 9.47403 18.536 9.55676 18.4834C9.63949 18.4307 9.7055 18.3556 9.74709 18.2668C9.78867 18.178 9.80409 18.0792 9.79155 17.982C9.77901 17.8847 9.73902 17.7931 9.67627 17.7178L5.6184 12.8467C5.56998 12.7886 5.50938 12.7419 5.4409 12.7098C5.37242 12.6778 5.29773 12.6611 5.22211 12.6611C5.1465 12.6611 5.07181 12.6778 5.00333 12.7098C4.93485 12.7419 4.87425 12.7886 4.82582 12.8467L0.767958 17.7178C0.705207 17.7931 0.665219 17.8847 0.652677 17.982C0.640135 18.0792 0.655558 18.178 0.697139 18.2668C0.738721 18.3556 0.80474 18.4307 0.887467 18.4834C0.970193 18.536 1.0662 18.564 1.16425 18.564Z" fill="#F6683F"/>
<path id="Vector_3" fill-rule="evenodd" clip-rule="evenodd" d="M16.5761 6.17988C13.3727 6.17988 10.5079 7.63915 8.61516 9.93227C8.53065 10.0418 8.42497 10.1332 8.30441 10.2011C8.18385 10.269 8.05087 10.312 7.91337 10.3274C7.77588 10.3429 7.63669 10.3305 7.50406 10.2911C7.37144 10.2517 7.24809 10.186 7.14136 10.098C7.03463 10.0099 6.9467 9.90133 6.88278 9.77862C6.81887 9.65591 6.78028 9.5216 6.76931 9.38368C6.75834 9.24575 6.77522 9.10703 6.81894 8.97576C6.86266 8.8445 6.93233 8.72336 7.0238 8.61956C8.53506 6.78986 10.54 5.43273 12.8003 4.70959C15.0606 3.98645 17.481 3.92773 19.7736 4.54041C22.0663 5.15309 24.1347 6.41139 25.7329 8.16565C27.3311 9.91991 28.3918 12.0963 28.7889 14.436H26.6898C26.2132 12.1053 24.9465 10.0107 23.1036 8.50633C21.2608 7.00198 18.955 6.18018 16.5761 6.17988ZM6.46239 18.564C6.85313 20.4724 7.77583 22.2314 9.1239 23.6377C10.472 25.0439 12.1904 26.0401 14.0806 26.5111C15.9708 26.9821 17.9558 26.9087 19.8061 26.2994C21.6563 25.69 23.2965 24.5697 24.537 23.0677C24.6215 22.9582 24.7272 22.8667 24.8478 22.7988C24.9683 22.731 25.1013 22.688 25.2388 22.6726C25.3763 22.6571 25.5155 22.6694 25.6481 22.7089C25.7807 22.7483 25.9041 22.814 26.0108 22.902C26.1175 22.99 26.2055 23.0986 26.2694 23.2214C26.3333 23.3441 26.3719 23.4784 26.3829 23.6163C26.3938 23.7542 26.377 23.8929 26.3332 24.0242C26.2895 24.1555 26.2198 24.2766 26.1284 24.3804C24.6171 26.2101 22.6121 27.5672 20.3519 28.2904C18.0916 29.0135 15.6712 29.0722 13.3786 28.4596C11.0859 27.8469 9.01745 26.5886 7.41925 24.8343C5.82104 23.0801 4.76033 20.9037 4.36328 18.564H6.46239Z" fill="#F6683F"/>
</g>
</g>
</g>
</g>
</svg>
